<svg xmlns="http://www.w3.org/2000/svg" xml:space="preserve" version="1.1" xmlns:xlink="http://www.w3.org/1999/xlink" viewBox="0 0 200 200" enable-background="new 0 0 200 200">
  <rect width="200" fill="#AAAAAA" height="200"></rect>
  <g fill="#999999" opacity="0.6">
    <circle cx="30" cy="30" r="2"></circle>
    <circle cx="80" cy="20" r="1.6"></circle>
    <circle cx="140" cy="40" r="2.4"></circle>
    <circle cx="180" cy="10" r="1.8"></circle>
    <circle cx="20" cy="80" r="2.2"></circle>
    <circle cx="70" cy="70" r="2"></circle>
    <circle cx="120" cy="90" r="1.6"></circle>
    <circle cx="170" cy="60" r="2.4"></circle>
    <circle cx="40" cy="130" r="1.8"></circle>
    <circle cx="100" cy="120" r="2.2"></circle>
    <circle cx="150" cy="140" r="2"></circle>
    <circle cx="190" cy="110" r="1.6"></circle>
    <circle cx="30" cy="180" r="2.4"></circle>
    <circle cx="90" cy="170" r="1.8"></circle>
    <circle cx="130" cy="190" r="2.2"></circle>
    <circle cx="160" cy="160" r="2"></circle>
  </g>
  <g stroke="#707070" stroke-width="4" stroke-linecap="square">
    <line x1="0" y1="50" x2="200" y2="50"></line>
    <line x1="0" y1="100" x2="200" y2="100"></line>
    <line x1="0" y1="150" x2="200" y2="150"></line>
    <line x1="50" y1="0" x2="50" y2="50"></line>
    <line x1="100" y1="0" x2="100" y2="50"></line>
    <line x1="150" y1="0" x2="150" y2="50"></line>
    <line x1="25" y1="50" x2="25" y2="100"></line>
    <line x1="75" y1="50" x2="75" y2="100"></line>
    <line x1="125" y1="50" x2="125" y2="100"></line>
    <line x1="175" y1="50" x2="175" y2="100"></line>
    <line x1="50" y1="100" x2="50" y2="150"></line>
    <line x1="100" y1="100" x2="100" y2="150"></line>
    <line x1="150" y1="100" x2="150" y2="150"></line>
    <line x1="25" y1="150" x2="25" y2="200"></line>
    <line x1="75" y1="150" x2="75" y2="200"></line>
    <line x1="125" y1="150" x2="125" y2="200"></line>
    <line x1="175" y1="150" x2="175" y2="200"></line>
    <polyline points="0,0 200,0 200,200 0,200 0,0" fill="none"></polyline>
  </g>
</svg>